<?xml version="1.0" standalone="no"?><!DOCTYPE svg PUBLIC "-//W3C//DTD SVG 1.1//EN" "http://www.w3.org/Graphics/SVG/1.1/DTD/svg11.dtd"><svg t="1667877475117" class="icon" viewBox="0 0 1024 1024" version="1.1" xmlns="http://www.w3.org/2000/svg" p-id="1940" xmlns:xlink="http://www.w3.org/1999/xlink" width="200" height="200"><path d="M895.824 64h-576c-35.541 0-64.352 28.811-64.352 64.352v127.297H128.176c-35.541 0-64.352 28.811-64.352 64.352v575.648c0 35.54 28.811 64.352 64.352 64.352h639.648c35.541 0 64.352-28.811 64.352-64.352V768.352h63.648c35.541 0 64.352-28.811 64.352-64.352V128.352c0-35.541-28.811-64.352-64.352-64.352z m0.352 640c0 0.078-0.005 0.12-0.004 0.122a0.732 0.732 0 0 1-0.209 0.221s-0.041 0.008-0.139 0.008h-90.91a32.319 32.319 0 0 0-4.738-0.352c-1.61 0-3.192 0.122-4.738 0.352h-91.613c-17.673 0-32 14.327-32 32 0 17.673 14.327 32 32 32h64.352v127.297c0 0.079-0.005 0.12-0.003 0.122a0.744 0.744 0 0 1-0.209 0.221s-0.041 0.008-0.139 0.008h-639.65c-0.068 0-0.108-0.004-0.119-0.004h-0.003a0.732 0.732 0 0 1-0.221-0.209s-0.008-0.041-0.008-0.139V320c0-0.078 0.005-0.12 0.004-0.122a0.732 0.732 0 0 1 0.209-0.221s0.041-0.008 0.139-0.008h127.297V384c0 17.673 14.327 32 32 32 17.673 0 32-14.327 32-32v-91.613c0.229-1.546 0.352-3.128 0.352-4.738 0-1.61-0.122-3.192-0.352-4.738V128.352c0-0.079 0.005-0.12 0.003-0.122a0.744 0.744 0 0 1 0.209-0.221s0.041-0.008 0.139-0.008h576c0.068 0 0.108 0.004 0.119 0.004h0.003c0.073 0.036 0.196 0.16 0.221 0.209 0 0 0.008 0.041 0.008 0.139V704z" p-id="1941"></path><path d="M735.824 480H544.176V288c0-17.673-14.327-32-32-32-17.673 0-32 14.327-32 32v192H287.824c-17.673 0-32 14.327-32 32 0 17.673 14.327 32 32 32h192.352v192c0 17.673 14.327 32 32 32 17.673 0 32-14.327 32-32V544h191.648c17.673 0 32-14.327 32-32 0-17.673-14.326-32-32-32z" p-id="1942"></path></svg>