<?xml version="1.0" standalone="no"?><!DOCTYPE svg PUBLIC "-//W3C//DTD SVG 1.1//EN" "http://www.w3.org/Graphics/SVG/1.1/DTD/svg11.dtd"><svg t="1670067547655" class="icon" viewBox="0 0 1024 1024" version="1.1" xmlns="http://www.w3.org/2000/svg" p-id="1948" xmlns:xlink="http://www.w3.org/1999/xlink" width="200" height="200"><path d="M746.470629 0a63.981898 63.981898 0 0 1 6.142262 127.665215L746.470629 127.963797H127.978944v697.317384l236.903642-192.457551a63.981898 63.981898 0 0 1 75.49864-3.838914l5.203862 3.838914 341.236791 277.254894a63.981898 63.981898 0 0 1-75.413331 103.181475l-5.28917-3.838914L405.233837 764.839614l-300.885541 244.496161c-40.308596 32.758732-99.897071 6.270226-104.077222-43.934237L0.015147 959.728477v-895.746579A63.981898 63.981898 0 0 1 57.854783 0.298582L63.997045 0h682.473584z m0 213.272995a63.981898 63.981898 0 0 1 63.683316 57.839636L810.452527 277.254893V426.54599h149.291096a63.981898 63.981898 0 0 1 6.142263 127.665214L959.743623 554.509787H810.452527v149.291096a63.981898 63.981898 0 0 1-127.665215 6.142262L682.48873 703.800883v-149.333751L533.197634 554.509787a63.981898 63.981898 0 0 1-6.142262-127.665215L533.197634 426.54599l149.291096-0.042655V277.254893A63.981898 63.981898 0 0 1 746.470629 213.272995z" p-id="1949"></path></svg>