<?xml version="1.0" standalone="no"?><!DOCTYPE svg PUBLIC "-//W3C//DTD SVG 1.1//EN" "http://www.w3.org/Graphics/SVG/1.1/DTD/svg11.dtd"><svg t="1670729593070" class="icon" viewBox="0 0 1024 1024" version="1.1" xmlns="http://www.w3.org/2000/svg" p-id="2023" xmlns:xlink="http://www.w3.org/1999/xlink" width="200" height="200"><path d="M512 21.333333c283.136 0 512 234.752 512 523.52 0 185.258667-95.018667 354.048-247.466667 448.256a64 64 0 0 1-26.538666 9.173334l-7.125334 0.384H281.173333a64 64 0 0 1-33.664-9.557334C95.018667 898.901333 0 730.112 0 544.810667 0 256.085333 228.864 21.333333 512 21.333333z m0 128c-211.712 0-384 176.725333-384 395.52 0 127.104 58.624 243.541333 154.624 317.226667l10.453333 7.68 7.082667 4.906667h423.637333l7.125334-4.864c95.146667-68.053333 156.202667-176.981333 164.181333-297.898667l0.682667-13.525333 0.213333-13.568C896 326.058667 723.712 149.333333 512 149.333333z m242.304 175.36a64 64 0 0 1 5.461333 85.632l-4.309333 4.906667-85.333333 87.466667a175.530667 175.530667 0 0 1-35.370667 191.018666 168.789333 168.789333 0 0 1-242.474667 0 175.36 175.36 0 0 1 0-244.053333 168.789333 168.789333 0 0 1 187.605334-37.802667l83.925333-85.973333a64 64 0 0 1 90.453333-1.152z m-270.378667 214.314667a47.402667 47.402667 0 0 0 0 65.365333 40.789333 40.789333 0 0 0 59.178667 0 47.402667 47.402667 0 0 0 0-65.365333 40.789333 40.789333 0 0 0-59.178667 0z" p-id="2024"></path></svg>