<?xml version="1.0" standalone="no"?><!DOCTYPE svg PUBLIC "-//W3C//DTD SVG 1.1//EN" "http://www.w3.org/Graphics/SVG/1.1/DTD/svg11.dtd"><svg t="1668335045957" class="icon" viewBox="0 0 1024 1024" version="1.1" xmlns="http://www.w3.org/2000/svg" p-id="2542" xmlns:xlink="http://www.w3.org/1999/xlink" width="200" height="200"><path d="M512 0c282.752 0 512 229.248 512 512s-229.248 512-512 512S0 794.752 0 512 229.248 0 512 0z m0 128a384 384 0 1 0 0 768 384 384 0 0 0 0-768z m218.026667 165.973333a64 64 0 0 1 4.394666 85.632l-4.394666 4.864L602.496 512l127.573333 127.573333a64 64 0 0 1-85.674666 94.848l-4.864-4.394666L512 602.496l-127.573333 127.573333a64 64 0 0 1-85.632 4.352l-4.821334-4.394666a64 64 0 0 1-4.394666-85.632l4.394666-4.864L421.504 512l-127.573333-127.573333a64 64 0 0 1 85.674666-94.848l4.864 4.394666L512 421.504l127.573333-127.573333a64 64 0 0 1 90.453334 0z" p-id="2543"></path></svg>