<?xml version="1.0" standalone="no"?><!DOCTYPE svg PUBLIC "-//W3C//DTD SVG 1.1//EN" "http://www.w3.org/Graphics/SVG/1.1/DTD/svg11.dtd"><svg t="1664261961958" class="icon" viewBox="0 0 1024 1024" version="1.1" xmlns="http://www.w3.org/2000/svg" p-id="1821" xmlns:xlink="http://www.w3.org/1999/xlink" width="200" height="200"><path d="M853.333333 256A64 64 0 0 1 917.333333 320v544a149.333333 149.333333 0 0 1-149.333333 149.333333h-512a149.333333 149.333333 0 0 1-149.333333-149.333333V320A64 64 0 0 1 170.666667 256zM789.333333 384H234.666667v480a21.333333 21.333333 0 0 0 17.493333 20.992l3.84 0.341333h512a21.333333 21.333333 0 0 0 21.333333-21.333333V384zM128 234.666667a64 64 0 0 1-6.144-127.701334L128 106.666667h169.216l14.421333-37.888A106.666667 106.666667 0 0 1 403.626667 0.298667L411.349333 0h201.386667A106.666667 106.666667 0 0 1 712.533333 68.778667l14.378667 37.888H896a64 64 0 0 1 6.144 127.701333L896 234.666667h-768z" p-id="1822"></path></svg>