<?xml version="1.0" standalone="no"?><!DOCTYPE svg PUBLIC "-//W3C//DTD SVG 1.1//EN" "http://www.w3.org/Graphics/SVG/1.1/DTD/svg11.dtd"><svg t="1664261873774" class="icon" viewBox="0 0 1024 1024" version="1.1" xmlns="http://www.w3.org/2000/svg" p-id="1682" xmlns:xlink="http://www.w3.org/1999/xlink" width="200" height="200"><path d="M938.666667 469.333333a64 64 0 0 1 63.701333 57.856L1002.666667 533.333333v384c0 58.069333-47.274667 102.954667-104.234667 106.453334l-7.168 0.213333H132.693333C75.093333 1024 25.472 981.461333 21.589333 924.544L21.333333 917.333333v-384a64 64 0 0 1 127.701334-6.144L149.333333 533.333333V896h725.333334v-362.666667a64 64 0 0 1 57.856-63.701333L938.666667 469.333333z m-426.666667-469.333333a64 64 0 0 1 63.701333 57.856L576 64v454.954667l120.32-153.173334a64 64 0 0 1 104.448 73.728l-3.797333 5.376-234.666667 298.666667-2.986667 3.541333-4.778666 4.693334-3.626667 3.029333-5.717333 3.925333-6.912 3.626667-6.954667 2.688-6.144 1.578667-7.168 1.066666L512 768l-3.925333-0.128-7.978667-0.981333-4.48-0.981334-5.546667-1.706666-4.352-1.834667-5.205333-2.602667-4.864-3.029333-6.186667-4.906667-3.541333-3.413333-4.266667-4.864-234.666666-298.666667a64 64 0 0 1 96.384-84.053333l4.266666 4.949333L448 518.954667V64A64 64 0 0 1 512 0z" p-id="1683"></path></svg>