<?xml version="1.0" standalone="no"?><!DOCTYPE svg PUBLIC "-//W3C//DTD SVG 1.1//EN" "http://www.w3.org/Graphics/SVG/1.1/DTD/svg11.dtd"><svg t="1668334688343" class="icon" viewBox="0 0 1170 1024" version="1.1" xmlns="http://www.w3.org/2000/svg" p-id="1847" xmlns:xlink="http://www.w3.org/1999/xlink" width="228.515625" height="200"><path d="M585.14627 0c256.146286 0 450.706286 166.765714 579.779048 484.498286a73.142857 73.142857 0 0 1 0 55.003428C1035.852556 857.234286 841.292556 1024 585.14627 1024 328.999985 1024 134.439985 857.234286 5.367223 539.501714a73.142857 73.142857 0 0 1 0-55.003428C134.439985 166.765714 328.999985 0 585.14627 0z m0 146.285714C408.969509 146.285714 269.461699 255.75619 163.355794 487.521524l-7.753143 17.16419-3.120761 7.314286 3.120761 7.314286c102.009905 232.106667 235.812571 347.282286 404.333715 357.619809l12.678095 0.585143L585.14627 877.714286c176.176762 0 315.684571-109.470476 421.790477-341.23581l7.753143-17.16419 3.072-7.314286-3.072-7.314286c-102.009905-232.106667-235.812571-347.282286-404.333715-357.619809l-12.678095-0.585143L585.14627 146.285714z m0 73.142857c161.060571 0 292.571429 131.510857 292.571429 292.571429s-131.510857 292.571429-292.571429 292.571429-292.571429-131.510857-292.571428-292.571429 131.510857-292.571429 292.571428-292.571429z m0 146.285715c-80.310857 0-146.285714 65.974857-146.285714 146.285714s65.974857 146.285714 146.285714 146.285714 146.285714-65.974857 146.285715-146.285714-65.974857-146.285714-146.285715-146.285714z" p-id="1848"></path></svg>