<?xml version="1.0" standalone="no"?><!DOCTYPE svg PUBLIC "-//W3C//DTD SVG 1.1//EN" "http://www.w3.org/Graphics/SVG/1.1/DTD/svg11.dtd"><svg t="1661742665567" class="icon" viewBox="0 0 1024 1024" version="1.1" xmlns="http://www.w3.org/2000/svg" p-id="9557" xmlns:xlink="http://www.w3.org/1999/xlink" width="200" height="200"><path d="M226.410667 160.149333l260.672 34.005334a200.533333 200.533333 0 0 0 52.138666 0c131.477333-20.394667 210.794667-31.722667 260.672-36.266667A67.285333 67.285333 0 0 1 874.666667 225.898667v528.128a68.266667 68.266667 0 0 1-56.661334 68.010666L543.744 871.893333a149.781333 149.781333 0 0 1-63.466667 0L206.016 822.037333A70.4 70.4 0 0 1 149.333333 754.026667v-525.866667a66.752 66.752 0 0 1 77.077334-68.010667z m140.522666 145.066667h-13.589333a103.04 103.04 0 0 0-101.994667 101.994667v9.066666a112.725333 112.725333 0 0 0 111.061334 111.061334 93.866667 93.866667 0 0 0 36.266666-6.805334l52.138667 79.338667a101.269333 101.269333 0 0 0-13.610667 95.210667 81.066667 81.066667 0 0 0 45.333334 45.333333 89.6 89.6 0 0 0 126.933333-79.338667c0-13.610667-2.261333-20.394667-2.261333-29.461333l79.338666-65.728a90.944 90.944 0 0 0 34.005334 6.805333 66.88 66.88 0 0 0 58.944-97.472A62.997333 62.997333 0 0 0 752.277333 448a66.389333 66.389333 0 0 0-97.472 58.922667 62.762667 62.762667 0 0 0 2.261334 20.394666l-79.338667 65.728a87.04 87.04 0 0 0-56.661333-20.394666 57.6 57.6 0 0 0-27.2 4.522666l-52.138667-79.338666a113.258667 113.258667 0 0 0 31.744-79.338667 108.074667 108.074667 0 0 0-106.538667-113.344z" p-id="9558"></path></svg>