<?xml version="1.0" standalone="no"?><!DOCTYPE svg PUBLIC "-//W3C//DTD SVG 1.1//EN" "http://www.w3.org/Graphics/SVG/1.1/DTD/svg11.dtd"><svg t="1668334649556" class="icon" viewBox="0 0 1024 1024" version="1.1" xmlns="http://www.w3.org/2000/svg" p-id="1708" xmlns:xlink="http://www.w3.org/1999/xlink" width="200" height="200"><path d="M306.05312 361.6768a61.44 61.44 0 0 1 4.21888 82.20672l-4.21888 4.66944-106.9056 106.9056a190.464 190.464 0 0 0 262.30784 276.15232l7.08608-6.7584 106.9056-106.9056a61.44 61.44 0 0 1 91.09504 82.24768l-4.21888 4.66944-106.9056 106.9056A313.344 313.344 0 0 1 104.448 476.61056l7.7824-8.11008 106.9056-106.9056a61.44 61.44 0 0 1 86.91712 0z m385.024-27.81184a61.44 61.44 0 0 1 4.21888 82.20672l-4.21888 4.66944-270.336 270.336a61.44 61.44 0 0 1-91.09504-82.20672l4.21888-4.66944 270.336-270.336a61.44 61.44 0 0 1 86.8352 0z m220.65152-221.5936a313.344 313.344 0 0 1 7.7824 435.07712l-7.7824 8.11008-106.9056 106.9056a61.44 61.44 0 0 1-91.09504-82.24768l4.21888-4.66944 106.9056-106.9056a190.464 190.464 0 0 0-262.30784-276.15232l-7.08608 6.7584-106.9056 106.9056a61.44 61.44 0 0 1-91.09504-82.24768l4.21888-4.66944 106.9056-106.9056a313.344 313.344 0 0 1 443.1872 0z" p-id="1709"></path></svg>