<?xml version="1.0" standalone="no"?><!DOCTYPE svg PUBLIC "-//W3C//DTD SVG 1.1//EN" "http://www.w3.org/Graphics/SVG/1.1/DTD/svg11.dtd"><svg t="1668334767304" class="icon" viewBox="0 0 1024 1024" version="1.1" xmlns="http://www.w3.org/2000/svg" p-id="2125" xmlns:xlink="http://www.w3.org/1999/xlink" width="200" height="200"><path d="M44.991564 430.237858l0.981175 5.801729a63.989655 63.989655 0 0 0 44.963398 47.864262L189.181587 511.931318l-98.24545 28.027469a63.989655 63.989655 0 0 0-45.944573 53.66599L0.582744 951.881526c-6.270986 50.679807 46.45649 87.921786 92.145103 65.098809l895.85517-447.842266c47.139046-23.548193 47.139046-90.86531 0-114.413503L92.685187 6.839641C46.996574-15.940676-5.730902 21.343963 0.540084 71.98111l44.366161 358.256748z m97.264276-255.532022L816.877443 511.931318 142.25584 849.11414l24.529368-197.728034 273.193167-77.9394 6.185667-2.047669c55.671-21.585844 53.580671-103.9192-6.185667-120.983108L166.785208 372.43387l-24.529368-197.728034z" p-id="2126"></path></svg>